<?xml version="1.0" standalone="no"?>
<!DOCTYPE svg PUBLIC "-//W3C//DTD SVG 20010904//EN"
 "http://www.w3.org/TR/2001/REC-SVG-20010904/DTD/svg10.dtd">
<svg version="1.0" xmlns="http://www.w3.org/2000/svg"
 width="700.000000pt" height="700.000000pt" viewBox="0 0 700.000000 700.000000"
 preserveAspectRatio="xMidYMid meet">
<metadata>
Created by potrace 1.14, written by Peter Selinger 2001-2017
</metadata>
<g transform="translate(0.000000,700.000000) scale(0.100000,-0.100000)"
fill="#000000" stroke="none">
<path d="M0 3500 l0 -3500 3500 0 3500 0 0 3500 0 3500 -3500 0 -3500 0 0
-3500z m3894 529 c163 -50 290 -193 321 -362 l7 -37 -55 0 -56 0 -16 58 c-35
121 -118 206 -237 244 -207 64 -440 -36 -529 -227 -128 -273 18 -585 302 -646
73 -16 201 -6 271 20 103 39 208 163 208 245 l0 26 -180 0 -180 0 0 50 0 50
235 0 235 0 0 -64 c0 -160 -93 -312 -235 -384 -128 -64 -301 -75 -438 -28
-154 52 -262 145 -327 281 -167 347 32 726 417 795 66 12 182 3 257 -21z
m1021 0 c98 -36 194 -146 220 -252 l7 -27 -58 0 -59 0 -18 45 c-43 104 -143
162 -267 153 -125 -9 -200 -74 -200 -173 0 -96 55 -147 225 -209 192 -70 230
-87 275 -120 130 -95 139 -292 18 -402 -117 -105 -319 -130 -476 -59 -74 34
-156 116 -192 191 -17 34 -30 67 -30 73 0 7 22 11 58 11 57 0 58 -1 70 -33 47
-131 230 -208 385 -163 141 41 198 177 114 272 -38 45 -71 61 -237 119 -153
53 -180 66 -233 107 -56 45 -88 107 -95 183 -6 83 11 143 55 195 94 109 282
147 438 89z m923 -1 c97 -36 193 -146 218 -250 6 -28 6 -28 -49 -28 l-55 0
-26 55 c-50 102 -143 151 -266 143 -120 -9 -200 -74 -200 -164 0 -116 45 -153
297 -245 157 -56 210 -85 253 -136 31 -39 60 -116 60 -163 0 -101 -75 -207
-181 -254 -245 -111 -533 9 -604 252 -6 21 -4 22 52 22 l58 0 31 -58 c52 -96
150 -152 269 -152 200 0 321 162 213 286 -40 45 -63 57 -241 120 -168 59 -235
98 -277 159 -59 85 -65 206 -15 291 78 132 287 188 463 122z"/>
</g>
</svg>
