<svg data-v-fde0c5aa="" xmlns="http://www.w3.org/2000/svg" viewBox="0 0 300 300" class="iconLeft"><!----><defs data-v-fde0c5aa=""><!----></defs><rect data-v-fde0c5aa="" fill="#156EAC" x="0" y="0" width="300px" height="300px" class="logo-background-square"></rect><defs data-v-fde0c5aa=""><!----></defs><g data-v-fde0c5aa="" id="674c3ebd-279c-47de-a184-e7efdf223b20" fill="#ffffff" transform="matrix(4.536847010188181,0,0,4.536847010188181,132.15164878669265,109.66742960349288)"><path d="M10.77 9.39L6.29 9.39L6.29 10.33L9.77 10.33C9.53 12.05 8.16 13.17 6.08 13.17C3.82 13.17 1.85 11.48 1.85 8.89C1.85 6.30 3.82 4.61 6.08 4.61C8.11 4.61 9.45 5.87 9.69 7.62L10.72 7.62C10.51 5.39 8.64 3.64 6.08 3.64C3.22 3.64 0.74 5.75 0.74 8.86C0.74 12.01 3.22 14.14 6.08 14.14C8.89 14.14 10.77 12.33 10.77 9.76ZM12.03 11.14C12.53 13.01 14 14.14 16.02 14.14C17.92 14.14 19.47 13.02 19.47 11.37C19.47 7.80 13.71 9.07 13.71 6.24C13.71 5.28 14.60 4.62 15.90 4.62C17.12 4.62 18.00 5.33 18.35 6.51L19.43 6.51C19.05 4.80 17.78 3.64 15.90 3.64C13.97 3.64 12.61 4.72 12.61 6.24C12.61 10.05 18.37 8.69 18.37 11.40C18.37 12.40 17.37 13.16 16.02 13.16C14.67 13.16 13.57 12.49 13.13 11.14ZM20.73 11.14C21.24 13.01 22.71 14.14 24.72 14.14C26.63 14.14 28.18 13.02 28.18 11.37C28.18 7.80 22.41 9.07 22.41 6.24C22.41 5.28 23.31 4.62 24.61 4.62C25.83 4.62 26.71 5.33 27.06 6.51L28.14 6.51C27.76 4.80 26.49 3.64 24.61 3.64C22.68 3.64 21.32 4.72 21.32 6.24C21.32 10.05 27.08 8.69 27.08 11.40C27.08 12.40 26.08 13.16 24.72 13.16C23.38 13.16 22.27 12.49 21.84 11.14Z"></path></g><defs data-v-fde0c5aa=""><!----></defs><g data-v-fde0c5aa="" id="cfcdeb78-b2e6-440f-98f2-eb5cfa296715" stroke="none" fill="#F6575E" transform="matrix(1.0325617296924592,0,0,1.0325617296924592,29.626885351934447,98.37191154592183)"><path d="M70.947 51.604c0-2.5-2.034-4.533-4.534-4.533-2.499 0-4.534 2.033-4.534 4.533s2.035 4.534 4.534 4.534a4.539 4.539 0 0 0 4.534-4.534z"></path><path d="M89.953 50.001L75.849 25.57v.534h-9.79l-8.434 8.433a7.675 7.675 0 0 1 1.102 3.958c0 4.264-3.469 7.734-7.734 7.734-4.264 0-7.734-3.471-7.734-7.734 0-4.265 3.47-7.734 7.734-7.734 1.661 0 3.197.531 4.458 1.426l9.282-9.282h9.575L69.976 15.4H44.934v13.484L30.046 43.771a7.68 7.68 0 0 1 1.013 3.813c0 4.265-3.47 7.733-7.734 7.733-4.265 0-7.734-3.469-7.734-7.733s3.469-7.734 7.734-7.734c1.72 0 3.306.571 4.592 1.525l13.816-13.816v-12.16h-11.71L10.046 50.001l10.593 18.346 18.343-18.342h19.866c.74-3.499 3.85-6.135 7.565-6.135 4.265 0 7.733 3.471 7.733 7.734 0 4.265-3.469 7.734-7.733 7.734-3.716 0-6.825-2.635-7.565-6.134H40.307L22.296 71.217l7.728 13.384h14.155v-6.6c-3.499-.738-6.134-3.85-6.134-7.564 0-4.266 3.469-7.734 7.734-7.734 3.716 0 6.826 2.635 7.565 6.134h25.547v.325l11.062-19.161z"></path><path d="M18.792 47.584a4.54 4.54 0 0 0 4.534 4.534 4.54 4.54 0 0 0 4.534-4.534 4.54 4.54 0 0 0-4.534-4.534 4.54 4.54 0 0 0-4.534 4.534zM50.312 70.437c0-2.5-2.034-4.534-4.534-4.534s-4.534 2.034-4.534 4.534c0 2.499 2.034 4.533 4.534 4.533s4.534-2.034 4.534-4.533zM50.993 33.961a4.54 4.54 0 0 0-4.534 4.534c0 2.499 2.034 4.533 4.534 4.533s4.534-2.034 4.534-4.533a4.54 4.54 0 0 0-4.534-4.534zM47.378 78.001v6.6h22.598l7.255-12.564H53.344a7.754 7.754 0 0 1-5.966 5.964z"></path></g><!----></svg>